#!OML:ASF E:\motion texture\Top Level 1\Subject 1\Session 1\male.ASF
:FULLY-SPECIFIED
:DEGREES
213
root 24.8788 17.5943 5.12884 55.5233 -74.742 -48.003
lowerback 5.66411 0.629225 3.02228
upperback 0.350086 0.984329 -1.26079
thorax -2.74216 0.442469 -3.07701
lowerneck -16.3695 -4.10111 -10.0241
upperneck -2.84218 -4.32628 14.4161
head 2.37795 -1.72574 5.79497
rclavicle 2.14687e-014 -7.95139e-015
rhumerus 50.7981 22.6963 -63.7302
rradius 62.1381
rwrist 23.1647
rhand -35.3566 -31.544
rfingers 7.12502
rthumb -8.48889 -61.3533
lclavicle 2.14687e-014 -7.95139e-015
lhumerus 47.7971 -25.0788 79.6581
lradius 54.8895
lwrist 10.75
lhand -14.7318 35.8902
lfingers 7.12502
lthumb 11.4234 65.559
rfemur -19.8675 2.91558 33.4354
rtibia 30.1126
rfoot -13.3415 -8.38856
rtoes 8.16723
lfemur -35.9321 0.402288 -1.85037
ltibia 51.7692
lfoot -4.70773 1.12575
ltoes -18.7895
214
root 24.7065 17.5863 5.12302 56.0822 -74.679 -48.5424
lowerback 5.80316 0.696654 3.01616
upperback 0.371919 1.07459 -1.32517
thorax -2.78961 0.486152 -3.14965
lowerneck -16.3519 -4.14123 -10.1173
upperneck -2.91371 -4.36468 14.5388
head 2.36578 -1.74323 5.84715
rclavicle 2.82274e-014 -3.97569e-014
rhumerus 51.7519 22.2204 -63.5065
rradius 61.8363
rwrist 23.7519
rhand -35.7223 -31.7285
rfingers 7.12502
rthumb -8.84188 -61.5232
lclavicle 2.82274e-014 -3.97569e-014
lhumerus 48.641 -24.7647 79.7199
lradius 54.5829
lwrist 11.1603
lhand -14.6527 36.0302
lfingers 7.12502
lthumb 11.4997 65.6948
rfemur -19.2843 2.82625 33.8334
rtibia 30.1859
rfoot -13.8503 -8.57494
rtoes 7.7628
lfemur -36.6839 0.69444 -1.74718
ltibia 50.4833
lfoot -5.01925 1.5228
ltoes -18.4553
215
root 24.534 17.5757 5.11814 56.6572 -74.6219 -49.0954
lowerback 5.9361 0.764805 3.00997
upperback 0.397191 1.16522 -1.39578
thorax -2.8297 0.530117 -3.22892
lowerneck -16.3329 -4.17851 -10.2059
upperneck -2.98169 -4.40068 14.6657
head 2.35439 -1.75945 5.90017
rclavicle 1.43125e-014 1.43125e-014
rhumerus 52.6473 21.7717 -63.3391
rradius 61.5384
rwrist 24.3648
rhand -36.1032 -31.9242
rfingers 7.12502
rthumb -9.20938 -61.7031
lclavicle 1.43125e-014 1.43125e-014
lhumerus 49.4324 -24.4528 79.8125
lradius 54.2757
lwrist 11.5689
lhand -14.5752 36.1998
lfingers 7.12502
lthumb 11.5744 65.8602
rfemur -18.7171 2.73069 34.2209
rtibia 30.2879
rfoot -14.3602 -8.75999
rtoes 7.3257
lfemur -37.393 0.974922 -1.64337
ltibia 49.1067
lfoot -5.32025 1.89574
ltoes -18.1475
216
root 24.3611 17.5625 5.11421 57.2495 -74.569 -49.6624
lowerback 6.0597 0.834572 3.0033
upperback 0.426462 1.25733 -1.47133
thorax -2.85997 0.574994 -3.31322
lowerneck -16.3127 -4.21406 -10.2903
upperneck -3.04621 -4.43564 14.7956
head 2.34388 -1.7751 5.95355
rclavicle 1.94809e-014 -7.95139e-015
rhumerus 53.4824 21.3512 -63.2263
rradius 61.2487
rwrist 24.9976
rhand -36.4904 -32.1375
rfingers 7.12502
rthumb -9.583 -61.8995
lclavicle 1.94809e-014 -7.95139e-015
lhumerus 50.1701 -24.1472 79.9378
lradius 53.9744
lwrist 11.9799
lhand -14.4931 36.4011
lfingers 7.12502
lthumb 11.6536 66.0571
rfemur -18.1672 2.62973 34.5988
rtibia 30.4211
rfoot -14.8723 -8.94302
rtoes 6.85935
lfemur -38.0612 1.24061 -1.535
ltibia 47.6548
lfoot -5.59209 2.23788
ltoes -17.8567
217
root 24.1878 17.5469 5.11127 57.8547 -74.5192 -50.2401
lowerback 6.17391 0.905401 2.99605
upperback 0.459979 1.35021 -1.55092
thorax -2.88018 0.620449 -3.40148
lowerneck -16.2899 -4.2475 -10.3716
upperneck -3.10806 -4.46885 14.9284
head 2.33374 -1.7899 6.00756
rclavicle 2.70347e-014 -2.8625e-014
rhumerus 54.2555 20.963 -63.1662
rradius 60.97
rwrist 25.6482
rhand -36.8852 -32.3579
rfingers 7.12502
rthumb -9.9639 -62.1021
lclavicle 2.70347e-014 -2.8625e-014
lhumerus 50.8517 -23.8492 80.095
lradius 53.6823
lwrist 12.3999
lhand -14.4081 36.6238
lfingers 7.12502
lthumb 11.7356 66.2751
rfemur -17.6343 2.52309 34.9665
rtibia 30.5877
rfoot -15.3847 -9.12366
rtoes 6.35586
lfemur -38.6888 1.48859 -1.4212
ltibia 46.1436
lfoot -5.81887 2.54726
ltoes -17.5714
218
root 24.014 17.5287 5.10937 58.4688 -74.4714 -50.8254
lowerback 6.2799 0.97639 2.99135
upperback 0.496925 1.44286 -1.63666
thorax -2.89175 0.6659 -3.49755
lowerneck -16.2646 -4.27873 -10.4467
upperneck -3.16535 -4.5009 15.0636
head 2.32451 -1.80414 6.06139
rclavicle 5.96354e-015 -6.36111e-015
rhumerus 54.966 20.6113 -63.1578
rradius 60.7071
rwrist 26.3131
rhand -37.2864 -32.5958
rfingers 7.12502
rthumb -10.3509 -62.321
lclavicle 5.96354e-015 -6.36111e-015
lhumerus 51.4716 -23.5603 80.2864
lradius 53.4092
lwrist 12.8272
lhand -14.3241 36.8667
lfingers 7.12502
lthumb 11.8165 66.5133
rfemur -17.1185 2.40777 35.3233
rtibia 30.7907
rfoot -15.8966 -9.29887
rtoes 5.81299
lfemur -39.2758 1.71626 -1.30097
ltibia 44.5901
lfoot -6.00009 2.81368
ltoes -17.3037
219
root 23.8393 17.5082 5.10859 59.0957 -74.4239 -51.4223
lowerback 6.37629 1.04761 2.99118
upperback 0.537712 1.53552 -1.72738
thorax -2.89341 0.7115 -3.60128
lowerneck -16.2379 -4.30799 -10.5173
upperneck -3.21795 -4.53171 15.2015
head 2.31643 -1.81771 6.11548
rclavicle -1.39149e-014 1.74931e-014
rhumerus 55.6125 20.2989 -63.198
rradius 60.4596
rwrist 26.992
rhand -37.6941 -32.8429
rfingers 7.12502
rthumb -10.7442 -62.5482
lclavicle -1.39149e-014 1.74931e-014
lhumerus 52.0282 -23.2824 80.5095
lradius 53.1558
lwrist 13.2668
lhand -14.2402 37.1256
lfingers 7.12502
lthumb 11.8975 66.7676
rfemur -16.6212 2.28185 35.6706
rtibia 31.0341
rfoot -16.4065 -9.46512
rtoes 5.22783
lfemur -39.8222 1.92007 -1.16987
ltibia 43.0121
lfoot -6.12722 3.03098
ltoes -17.0781
220
root 23.664 17.4853 5.109 59.7276 -74.375 -52.0257
lowerback 6.46548 1.11851 2.9976
upperback 0.582982 1.62772 -1.82272
thorax -2.88579 0.75699 -3.71342
lowerneck -16.2105 -4.33596 -10.5859
upperneck -3.26519 -4.56182 15.3432
head 2.30999 -1.83078 6.17053
rclavicle -7.95139e-015 3.97569e-014
rhumerus 56.1942 20.0293 -63.2813
rradius 60.2325
rwrist 27.6773
rhand -38.1047 -33.0999
rfingers 7.12502
rthumb -11.1403 -62.7842
lclavicle -7.95139e-015 3.97569e-014
lhumerus 52.5171 -23.0177 80.7635
lradius 52.9326
lwrist 13.7226
lhand -14.1526 37.4065
lfingers 7.12502
lthumb 11.9819 67.0435
rfemur -16.1416 2.14263 36.0077
rtibia 31.3201
rfoot -16.9113 -9.61969
rtoes 4.59888
lfemur -40.3279 2.09394 -1.02378
ltibia 41.4221
lfoot -6.17235 3.20528
ltoes -16.9015
221
root 23.4879 17.4601 5.11063 60.3606 -74.3238 -52.6315
lowerback 6.547 1.1894 3.01043
upperback 0.632466 1.71984 -1.9225
thorax -2.86881 0.802592 -3.83369
lowerneck -16.1804 -4.36343 -10.6491
upperneck -3.30816 -4.59277 15.4849
head 2.30449 -1.84435 6.22463
rclavicle -6.75868e-015 -3.65764e-014
rhumerus 56.7085 19.8047 -63.4012
rradius 60.0297
rwrist 28.3636
rhand -38.5132 -33.3766
rfingers 7.12502
rthumb -11.5342 -63.0392
lclavicle -6.75868e-015 -3.65764e-014
lhumerus 52.9356 -22.7696 81.0472
lradius 52.7445
lwrist 14.1982
lhand -14.084 37.7093
lfingers 7.12502
lthumb 12.0481 67.3425
rfemur -15.6814 1.99083 36.3336
rtibia 31.6516
rfoot -17.406 -9.76118
rtoes 3.9237
lfemur -40.7967 2.2304 -0.858901
ltibia 39.8354
lfoot -6.14865 3.35672
ltoes -16.7807
222
root 23.3109 17.4328 5.11349 60.9849 -74.2729 -53.2314
lowerback 6.62468 1.25949 3.0284
upperback 0.684846 1.81083 -2.02855
thorax -2.846 0.84769 -3.9633
lowerneck -16.1478 -4.38958 -10.7103
upperneck -3.34493 -4.62318 15.6307
head 2.30063 -1.85754 6.2798
rclavicle -7.95139e-016 0
rhumerus 57.1526 19.6312 -63.5543
rradius 59.8576
rwrist 29.0389
rhand -38.9151 -33.6791
rfingers 7.12502
rthumb -11.9218 -63.3196
lclavicle -7.95139e-016 0
lhumerus 53.2777 -22.5402 81.3537
lradius 52.5982
lwrist 14.7012
lhand -14.0135 38.028
lfingers 7.12502
lthumb 12.1161 67.6572
rfemur -15.2413 1.82519 36.6433
rtibia 32.0316
rfoot -17.886 -9.88651
rtoes 3.19918
lfemur -41.2304 2.32686 -0.67698
ltibia 38.2729
lfoot -6.06678 3.47269
ltoes -16.6983
223
root 23.1331 17.4036 5.11757 61.5942 -74.2239 -53.8185
lowerback 6.69674 1.32831 3.04813
upperback 0.742162 1.89974 -2.14015
thorax -2.81444 0.891971 -4.09937
lowerneck -16.1199 -4.41547 -10.7698
upperneck -3.3733 -4.65398 15.778
head 2.30017 -1.87055 6.3351
rclavicle -1.78906e-014 -3.81667e-014
rhumerus 57.5302 19.5113 -63.733
rradius 59.7146
rwrist 29.7047
rhand -39.3064 -33.9971
rfingers 7.12502
rthumb -12.2991 -63.6154
lclavicle -1.78906e-014 -3.81667e-014
lhumerus 53.5425 -22.3266 81.6852
lradius 52.4994
lwrist 15.2279
lhand -13.9451 38.3525
lfingers 7.12502
lthumb 12.182 67.9778
rfemur -14.8254 1.64677 36.9329
rtibia 32.4644
rfoot -18.3462 -9.99381
rtoes 2.43357
lfemur -41.6345 2.38188 -0.479383
ltibia 36.7559
lfoot -5.92609 3.56954
ltoes -16.6505
